<?xml version="1.0" encoding="UTF-8" standalone="no"?>
<svg
   xmlns:dc="http://purl.org/dc/elements/1.1/"
   xmlns:cc="http://creativecommons.org/ns#"
   xmlns:rdf="http://www.w3.org/1999/02/22-rdf-syntax-ns#"
   xmlns:svg="http://www.w3.org/2000/svg"
   xmlns="http://www.w3.org/2000/svg"
   xmlns:sodipodi="http://sodipodi.sourceforge.net/DTD/sodipodi-0.dtd"
   xmlns:inkscape="http://www.inkscape.org/namespaces/inkscape"
   width="54"
   height="54"
   viewBox="0 0 14.2875 14.2875"
   version="1.1"
   id="svg8"
   inkscape:export-filename="./shout-alert.png"
   inkscape:export-xdpi="96"
   inkscape:export-ydpi="96"
   inkscape:version="1.0.2 (e86c870879, 2021-01-15)"
   sodipodi:docname="shout.svg">
  <defs
     id="defs2">
    <filter
       style="color-interpolation-filters:sRGB;"
       inkscape:label="Blur"
       id="filter1205">
      <feGaussianBlur
         stdDeviation="0.1 0.1"
         result="blur"
         id="feGaussianBlur1203" />
    </filter>
    <filter
       style="color-interpolation-filters:sRGB;"
       inkscape:label="Blur"
       id="filter1209">
      <feGaussianBlur
         stdDeviation="0.1 0.1"
         result="blur"
         id="feGaussianBlur1207" />
    </filter>
    <filter
       style="color-interpolation-filters:sRGB;"
       inkscape:label="Blur"
       id="filter1238">
      <feGaussianBlur
         stdDeviation="0.1 0.1"
         result="blur"
         id="feGaussianBlur1236" />
    </filter>
  </defs>
  <sodipodi:namedview
     id="base"
     pagecolor="#ffffff"
     bordercolor="#666666"
     borderopacity="1.0"
     inkscape:pageopacity="0.0"
     inkscape:pageshadow="2"
     inkscape:zoom="11.313708"
     inkscape:cx="23.532396"
     inkscape:cy="21.942249"
     inkscape:document-units="mm"
     inkscape:current-layer="layer4"
     inkscape:document-rotation="0"
     showgrid="true"
     units="px"
     inkscape:pagecheckerboard="true"
     inkscape:object-nodes="true"
     inkscape:object-paths="true"
     inkscape:snap-nodes="true"
     inkscape:snap-object-midpoints="true"
     inkscape:window-width="1916"
     inkscape:window-height="969"
     inkscape:window-x="1920"
     inkscape:window-y="90"
     inkscape:window-maximized="1">
    <inkscape:grid
       type="xygrid"
       id="grid837"
       originx="0.52916667"
       originy="0.52916667" />
  </sodipodi:namedview>
  <metadata
     id="metadata5">
    <rdf:RDF>
      <cc:Work
         rdf:about="">
        <dc:format>image/svg+xml</dc:format>
        <dc:type
           rdf:resource="http://purl.org/dc/dcmitype/StillImage" />
        <dc:title></dc:title>
      </cc:Work>
    </rdf:RDF>
  </metadata>
  <g
     inkscape:label="Layer 1"
     inkscape:groupmode="layer"
     id="layer1"
     sodipodi:insensitive="true"
     style="display:none">
    <text
       xml:space="preserve"
       style="font-size:10.1768px;line-height:1.25;font-family:'Josefin Sans';-inkscape-font-specification:'Josefin Sans';letter-spacing:0px;word-spacing:0px;fill:none;stroke:#000000;stroke-width:0.58153px;stroke-linecap:butt;stroke-linejoin:miter;stroke-opacity:1"
       x="4.0827603"
       y="10.716561"
       id="text835"><tspan
         sodipodi:role="line"
         id="tspan833"
         x="4.0827603"
         y="10.716561"
         style="font-style:normal;font-variant:normal;font-weight:normal;font-stretch:normal;font-family:Hack;-inkscape-font-specification:Hack;fill:#000000;stroke:none;stroke-width:0.58153px">!</tspan></text>
  </g>
  <g
     inkscape:groupmode="layer"
     id="layer7"
     inkscape:label="shadows-lower"
     style="opacity:0.35">
    <path
       id="path840-4-2"
       style="display:inline;opacity:1;fill:#000000;fill-rule:evenodd;stroke:#000000;stroke-width:0.978958;stroke-linecap:butt;stroke-linejoin:round;stroke-miterlimit:4;stroke-dasharray:none;stroke-opacity:1"
       d="M 6.35,3.175 V 5.820833 L 6.879167,8.466666 H 7.408333 L 7.9375,5.820833 V 3.175 Z M 7.14375,9.383923 A 0.67022294,0.67022294 0 0 0 6.473507,10.054166 0.67022294,0.67022294 0 0 0 7.14375,10.72441 0.67022294,0.67022294 0 0 0 7.813993,10.054166 0.67022294,0.67022294 0 0 0 7.14375,9.383923 Z" />
    <path
       id="path1278-9-1"
       style="display:inline;opacity:1;fill:none;fill-opacity:1;stroke:#000000;stroke-width:0.978958;stroke-linecap:round;stroke-linejoin:round;stroke-miterlimit:4;stroke-dasharray:none;stop-color:#000000"
       d="M 5.268412,2.874243 A 4.233333,4.7624997 0 0 0 2.910417,7.14375 4.233333,4.7624997 0 0 0 5.267895,11.41274 3.175,5.2916663 0 0 1 3.96875,7.14375 3.175,5.2916663 0 0 1 5.268412,2.874243 Z m 3.751192,5.29e-4 A 3.175,5.2916663 0 0 1 10.31875,7.14375 3.175,5.2916663 0 0 1 9.019088,11.413257 4.233333,4.7624997 0 0 0 11.377083,7.14375 4.233333,4.7624997 0 0 0 9.019604,2.87476 Z" />
    <path
       id="path1280-6-7"
       style="display:inline;opacity:1;fill:none;fill-opacity:1;stroke:#000000;stroke-width:0.978958;stroke-linecap:round;stroke-linejoin:round;stroke-miterlimit:4;stroke-dasharray:none;stop-color:#000000"
       d="M 11.492322,2.557983 A 5.4239583,7.6729168 0 0 1 12.567708,7.14375 5.4239583,7.6729168 0 0 1 11.492322,11.729 6.6145835,6.0854166 0 0 0 13.758333,7.14375 6.6145835,6.0854166 0 0 0 11.492322,2.557983 Z M 2.795178,2.558499 A 6.6145835,6.0854166 0 0 0 0.529167,7.14375 6.6145835,6.0854166 0 0 0 2.795178,11.729517 5.4239583,7.6729168 0 0 1 1.719792,7.14375 5.4239583,7.6729168 0 0 1 2.795178,2.558499 Z" />
  </g>
  <g
     inkscape:groupmode="layer"
     id="layer4"
     inkscape:label="shadows"
     style="display:inline;opacity:0.45"
     sodipodi:insensitive="true">
    <path
       id="path840-4"
       style="opacity:1;fill:#000000;fill-rule:evenodd;stroke:#000000;stroke-width:2.3;stroke-linecap:butt;stroke-linejoin:round;stroke-miterlimit:4;stroke-dasharray:none;stroke-opacity:1"
       d="m 24,12 v 10 l 2,10 h 2 L 30,22 V 12 Z m 3,23.466797 A 2.5331261,2.5331261 0 0 0 24.466797,38 2.5331261,2.5331261 0 0 0 27,40.533203 2.5331261,2.5331261 0 0 0 29.533203,38 2.5331261,2.5331261 0 0 0 27,35.466797 Z"
       transform="scale(0.26458333)" />
    <path
       id="path1278-9"
       style="display:inline;opacity:1;fill:none;fill-opacity:1;stroke:#000000;stroke-width:0.608542;stroke-linecap:round;stroke-linejoin:round;stroke-miterlimit:4;stroke-dasharray:none;stop-color:#000000"
       d="M 5.2684121,2.8742432 A 4.233333,4.7624997 0 0 0 2.9104171,7.14375 4.233333,4.7624997 0 0 0 5.2678951,11.41274 3.175,5.2916663 0 0 1 3.9687501,7.14375 3.175,5.2916663 0 0 1 5.2684121,2.8742432 Z m 3.7511917,5.291e-4 A 3.175,5.2916663 0 0 1 10.31875,7.14375 3.175,5.2916663 0 0 1 9.0190878,11.413257 4.233333,4.7624997 0 0 0 11.377083,7.14375 4.233333,4.7624997 0 0 0 9.0196038,2.8747599 Z" />
    <path
       id="path1280-6"
       style="display:inline;opacity:1;fill:none;fill-opacity:1;stroke:#000000;stroke-width:0.608542;stroke-linecap:round;stroke-linejoin:round;stroke-miterlimit:4;stroke-dasharray:none;stop-color:#000000"
       d="M 11.492322,2.5579833 A 5.4239583,7.6729168 0 0 1 12.567708,7.1437498 5.4239583,7.6729168 0 0 1 11.492322,11.729 6.6145835,6.0854166 0 0 0 13.758333,7.1437498 6.6145835,6.0854166 0 0 0 11.492322,2.5579833 Z M 2.7951782,2.5584992 A 6.6145835,6.0854166 0 0 0 0.52916715,7.1437498 6.6145835,6.0854166 0 0 0 2.7951782,11.729517 5.4239583,7.6729168 0 0 1 1.7197922,7.1437498 5.4239583,7.6729168 0 0 1 2.7951782,2.5584992 Z" />
  </g>
  <g
     inkscape:groupmode="layer"
     id="layer2"
     inkscape:label="exclam"
     style="display:inline"
     sodipodi:insensitive="true">
    <path
       style="fill:#ffffff;fill-rule:evenodd;stroke:#ffffff;stroke-width:0.132292;stroke-linecap:butt;stroke-linejoin:round;stroke-miterlimit:4;stroke-dasharray:none;stroke-opacity:1"
       d="m 6.3499999,3.175 h 1.5875 l 1e-7,2.6458333 -0.5291668,2.6458333 H 6.8791666 L 6.35,5.8208333 Z"
       id="path840"
       sodipodi:nodetypes="ccccccc" />
    <circle
       style="fill:#ffffff;fill-opacity:1;stroke:#ffffff;stroke-width:0.132292;stroke-miterlimit:4;stroke-dasharray:none;stop-color:#000000"
       id="path844"
       cx="7.1437497"
       cy="10.054167"
       r="0.67022294" />
  </g>
  <g
     inkscape:groupmode="layer"
     id="layer6"
     inkscape:label="rings1"
     style="display:none"
     sodipodi:insensitive="true">
    <path
       id="path849-4"
       style="display:inline;fill:#ffffff;fill-opacity:1;stroke:#ffffff;stroke-width:0.132292;stroke-linecap:round;stroke-linejoin:round;stroke-miterlimit:4;stroke-dasharray:none;stop-color:#000000"
       d="M 0.52916666,7.1437499 A 6.6145835,6.0854166 0 0 0 2.6665039,11.623063 6.0854166,6.6145835 0 0 1 1.0583333,7.1437499 6.0854166,6.6145835 0 0 1 2.6644367,2.6665039 6.6145835,6.0854166 0 0 0 0.52916666,7.1437499 Z M 11.620996,2.6644367 a 6.0854166,6.6145835 0 0 1 1.608171,4.4793132 6.0854166,6.6145835 0 0 1 -1.606104,4.4772461 6.6145835,6.0854166 0 0 0 2.13527,-4.4772461 6.6145835,6.0854166 0 0 0 -2.137337,-4.4793132 z" />
    <path
       id="path871"
       style="display:inline;fill:#ffffff;fill-opacity:1;stroke:#ffffff;stroke-width:0.5;stroke-linecap:round;stroke-linejoin:round;stroke-miterlimit:4;stroke-dasharray:none;stop-color:#000000"
       d="M 40.376953,13.619141 A 17.999999,19.999999 0 0 1 45,27 17.999999,19.999999 0 0 1 40.382812,40.375 19.999999,17.999999 0 0 0 47,27 19.999999,17.999999 0 0 0 40.376953,13.619141 Z M 13.617188,13.625 A 19.999999,17.999999 0 0 0 7,27 19.999999,17.999999 0 0 0 13.623047,40.380859 17.999999,19.999999 0 0 1 9,27 17.999999,19.999999 0 0 1 13.617188,13.625 Z"
       transform="scale(0.26458333)" />
    <path
       id="path849-4-6"
       style="display:inline;fill:none;fill-opacity:1;stroke:#000000;stroke-width:0.264583;stroke-linecap:round;stroke-linejoin:round;stroke-miterlimit:4;stroke-dasharray:none;filter:url(#filter1209);stop-color:#000000"
       d="M 0.52916662,7.1437499 A 6.6145835,6.0854166 0 0 0 2.666504,11.623064 6.0854166,6.6145835 0 0 1 1.0583334,7.1437499 6.0854166,6.6145835 0 0 1 2.6644368,2.6665039 6.6145835,6.0854166 0 0 0 0.52916662,7.1437499 Z M 11.620997,2.6644367 a 6.0854166,6.6145835 0 0 1 1.608171,4.4793132 6.0854166,6.6145835 0 0 1 -1.606104,4.4772471 6.6145835,6.0854166 0 0 0 2.13527,-4.4772471 6.6145835,6.0854166 0 0 0 -2.137337,-4.4793132 z" />
    <path
       id="path871-3"
       style="display:inline;fill:none;fill-opacity:1;stroke:#000000;stroke-width:0.264583;stroke-linecap:round;stroke-linejoin:round;stroke-miterlimit:4;stroke-dasharray:none;filter:url(#filter1205);stop-color:#000000"
       d="M 10.683069,3.6033977 A 4.7624997,5.2916663 0 0 1 11.90625,7.1437499 4.7624997,5.2916663 0 0 1 10.684619,10.682553 5.2916663,4.7624997 0 0 0 12.435417,7.1437499 5.2916663,4.7624997 0 0 0 10.683069,3.6033977 Z m -7.0801879,0.00155 A 5.2916663,4.7624997 0 0 0 1.8520834,7.1437499 5.2916663,4.7624997 0 0 0 3.6044313,10.684103 4.7624997,5.2916663 0 0 1 2.3812501,7.1437499 4.7624997,5.2916663 0 0 1 3.6028811,3.6049477 Z" />
  </g>
  <g
     inkscape:groupmode="layer"
     id="layer5"
     inkscape:label="rings2"
     style="display:inline"
     sodipodi:insensitive="true">
    <path
       id="path1278"
       style="display:inline;fill:#ffffff;fill-opacity:1;stroke:#ffffff;stroke-width:0.5;stroke-linecap:round;stroke-linejoin:round;stroke-miterlimit:4;stroke-dasharray:none;stop-color:#000000"
       d="M 19.912109,10.863281 A 15.999999,17.999999 0 0 0 11,27 15.999999,17.999999 0 0 0 19.910156,43.134766 12,19.999999 0 0 1 15,27 12,19.999999 0 0 1 19.912109,10.863281 Z m 14.177735,0.002 A 12,19.999999 0 0 1 39,27 12,19.999999 0 0 1 34.087891,43.136719 15.999999,17.999999 0 0 0 43,27 15.999999,17.999999 0 0 0 34.089844,10.865234 Z"
       transform="scale(0.26458333)" />
    <path
       id="path1280"
       style="display:inline;fill:#ffffff;fill-opacity:1;stroke:#ffffff;stroke-width:0.5;stroke-linecap:round;stroke-linejoin:round;stroke-miterlimit:4;stroke-dasharray:none;stop-color:#000000"
       d="M 43.435547,9.6679688 A 20.5,29.000001 0 0 1 47.5,27 20.5,29.000001 0 0 1 43.435547,44.330078 25.000001,23 0 0 0 52,27 25.000001,23 0 0 0 43.435547,9.6679688 Z m -32.871094,0.00195 A 25.000001,23 0 0 0 2,27 25.000001,23 0 0 0 10.564453,44.332031 20.5,29.000001 0 0 1 6.5,27 20.5,29.000001 0 0 1 10.564453,9.6699219 Z"
       transform="scale(0.26458333)" />
  </g>
</svg>
